HIERARCHY
ROOT base
{
	OFFSET 0.0 0.0 0.0
	CHANNELS 6 Xposition Yposition Zposition Zrotation Yrotation Xrotation
	JOINT root
	{
		OFFSET 0 0 0
		CHANNELS 6 Xposition Yposition Zposition Zrotation Yrotation Xrotation
		JOINT chest
		{
			OFFSET 0 4.72302 0
			CHANNELS 3 Zrotation Yrotation Xrotation
			JOINT neck
			{
				OFFSET 0 4.47788 0
				CHANNELS 3 Zrotation Yrotation Xrotation
				End Site
				{
					OFFSET 0.0 0.0 0.0
				}
			}
			JOINT right_shoulder
			{
				OFFSET -0.481 4.87 3.6622
				CHANNELS 3 Zrotation Yrotation Xrotation
				JOINT right_elbow
				{
					OFFSET 0 -5.49576 0
					CHANNELS 3 Zrotation Yrotation Xrotation
					JOINT right_wrist
					{
						OFFSET 0 -5.17894 0
						CHANNELS 3 Zrotation Yrotation Xrotation
						End Site
						{
							OFFSET 0.0 0.0 0.0
						}
					}
				}
			}
			JOINT left_shoulder
			{
				OFFSET -0.481 4.87 -3.6622
				CHANNELS 3 Zrotation Yrotation Xrotation
				JOINT left_elbow
				{
					OFFSET 0 -5.49576 0
					CHANNELS 3 Zrotation Yrotation Xrotation
					JOINT left_wrist
					{
						OFFSET 0 -5.17894 0
						CHANNELS 3 Zrotation Yrotation Xrotation
						End Site
						{
							OFFSET 0.0 0.0 0.0
						}
					}
				}
			}
		}
		JOINT right_hip
		{
			OFFSET 0 0 1.69774
			CHANNELS 3 Zrotation Yrotation Xrotation
			JOINT right_knee
			{
				OFFSET 0 -8.43092 0
				CHANNELS 3 Zrotation Yrotation Xrotation
				JOINT right_ankle
				{
					OFFSET 0 -8.1974 0
					CHANNELS 3 Zrotation Yrotation Xrotation
					End Site
					{
						OFFSET 0.0 0.0 0.0
					}
				}
			}
		}
		JOINT left_hip
		{
			OFFSET 0 0 -1.69774
			CHANNELS 3 Zrotation Yrotation Xrotation
			JOINT left_knee
			{
				OFFSET 0 -8.43092 0
				CHANNELS 3 Zrotation Yrotation Xrotation
				JOINT left_ankle
				{
					OFFSET 0 -8.1974 0
					CHANNELS 3 Zrotation Yrotation Xrotation
					End Site
					{
						OFFSET 0.0 0.0 0.0
					}
				}
			}
		}
	}
	JOINT red_arrow
	{
		OFFSET 0 0 0
		CHANNELS 3 Zrotation Yrotation Xrotation
		End Site
		{
			OFFSET 0.0 0.0 0.0
		}
	}
	JOINT blue_arrow
	{
		OFFSET 0 0 0
		CHANNELS 3 Zrotation Yrotation Xrotation
		End Site
		{
			OFFSET 0.0 0.0 0.0
		}
	}
}
MOTION
Frames: 18
Frame Time: 0.0333333333333333
196.011838206649 0 7.45536697804928 0 -0.68528540784276 0 0 16.9106230735779 0 -9.38147908295073 4.25095309299958 -0.707444653824217 -9.70949204862114 -4.82028343371103 -2.60814592199898 0.74409238455698 0.10848900862902 -0.537860131613398 -3.49753835836939 2.16064669294394 -3.13742960841293 1.52424838723361 0 0 0 0 0 14.6803005306812 -16.7327871170319 20.9074029851544 43.9739087634172 0 0 0 0 0 30.471072838831 -13.2740910158861 2.89824542061189 -15.2494474636384 0 0 -5.76836027890082 2.36117300183965 -7.45255412702926 -3.06559405155754 1.06050940751477 -0.242280064909329 -26.3479618648701 0 0 5.35414636516633 -10.8006500842717 7.06425560183111 0 0 0 0 0 0
196.729113572836 0 7.52908849492669 0 -0.583528542217647 0 0 17.0759082436562 0 -9.91252091988734 1.90453983951483 -0.948689188274449 -8.88415423496855 -4.6923050723919 -2.56861714577462 1.31261412392906 0.407890101183409 -0.606626222732693 -2.73525230909285 4.25996503654137 -3.85157363299335 2.49225833473584 0 0 0 0 0 14.4957743901993 -15.3753120542784 17.7085253590655 41.9333112017005 0 0 0 0 0 27.2235348847797 -11.3374108422118 4.81685971465479 -13.050124843347 0 0 -4.51427480585835 2.54862903941846 -7.36407818658643 0.960711485456141 0.820683375251182 -0.143604254646326 -34.2072914956218 0 0 -8.07600472661094 -9.21542425497304 7.08627317671385 0 0 0 0 0 0
197.462996819615 0 7.61041020527482 0 -0.577732451575136 0 0 17.2101809859276 0 -9.48767330307591 0.10861932570102 -1.15197096436659 -8.59668336621674 -4.54461539915608 -2.73491825425623 1.44557510298196 0.587578953056903 -0.611191235797523 -2.06010615592652 4.26638113680397 -3.77171100738311 5.42187972212381 0 0 0 0 0 13.5014130494877 -13.3948146779073 14.3428104682071 41.112223425722 0 0 0 0 0 23.2814512518125 -8.86851076811823 6.34632324787523 -11.0873880230738 0 0 -3.06938201117624 1.97913546363341 -7.15909861235866 5.18488684258217 0.65339642744487 0.457420009176356 -43.5137725794118 0 0 -13.0129686266972 -7.74810015024439 5.27631996671144 0 0 0 0 0 0
198.192689919472 0 7.67151690125465 0 -0.652384257932757 0 0 17.3084592461586 0 -8.73426390918611 -1.40194228017766 -1.23907350211602 -7.980939876401 -4.22930243128007 -2.77246319160891 1.86176586975892 0.694988638284964 -0.692616475444941 -1.58395150244402 6.2188620142182 -4.42427244907005 9.95702245128791 0 0 0 0 0 11.7847389700642 -10.8128416299289 10.9182826270921 39.1969974013154 0 0 0 0 0 19.5061070948024 -6.70630320647183 7.29491688889693 -9.8649139352357 0 0 -1.28520439164404 1.67020401007564 -6.98133135299443 9.90939947052909 0.30995219446021 1.43040537767013 -53.2284940698935 0 0 -13.0272861805485 -6.39076617036144 3.59683284200004 0 0 0 0 0 0
198.976438447833 0 7.71528133116662 0 -0.815912664791373 0 0 17.3934087991714 0 -7.16821069852203 -3.08280240339762 -1.21292602629754 -7.09286333593526 -3.46662848387974 -2.60789908164631 1.79814922744623 0.677724612948464 -0.872233364061498 -1.07886334690313 8.93908568072779 -5.6562227059914 15.0459949112839 0 0 0 0 0 8.47363423422286 -7.21939337397586 7.75902329058326 36.6051557622544 0 0 0 0 0 14.4380506337829 -4.72312577953359 7.85313852547192 -7.95669226982295 0 0 0.284353399652919 2.01013231064981 -6.80048067645683 13.9531258531052 0.280289898856252 2.91675337839546 -63.0185559620151 0 0 -9.27017772029044 -4.77609455304215 2.47063341341315 0 0 0 0 0 0
199.780800408125 0 7.73595271650702 0 -1.08788682378477 0 0 17.4415894508362 0 -5.53970868549589 -5.14350410143469 -0.974152401613812 -5.15779564636173 -2.33871946208832 -1.91685214906711 2.68182023377733 0.758661828454337 -1.05987614155489 -0.431564449292698 11.6565432600568 -7.00001439925222 20.5623084019855 0 0 0 0 0 2.88548775405767 -0.968480048851936 5.96954381219448 34.9943888351957 0 0 0 0 0 9.7787013125419 -3.72296033860268 7.75042294467465 -7.29007519833982 0 0 2.47868762503989 3.84210019012635 -6.55450696493683 18.3245088881939 0.0235368644511305 4.60499800197267 -73.7232792217443 0 0 -1.68539403321025 -3.64748363446919 2.172051973132 0 0 0 0 0 0
200.516307918727 0 7.71560274981894 0 -1.43663502045308 0 0 17.4631006717682 0 -4.0337974233379 -6.60994624130085 0.0286058793181556 -4.35039470304121 -1.73576972263676 -1.84308894290317 4.10906917660652 0.761465680652244 -0.715193416085754 0.91125059888911 14.3493404748863 -8.38551524855339 25.502083917299 0 0 0 0 0 -1.02908794557321 4.28420224685757 6.22786596409137 33.1173777191953 0 0 0 0 0 6.87644420724514 -2.42616585618114 6.37811663318982 -9.16564685197261 0 0 5.76263170999852 4.74078421520438 -6.07615190119609 22.4496801617458 -0.193286142506493 5.68099114635266 -80.4619984983922 0 0 3.89961568107258 -3.30209773714189 1.9972109833242 0 0 0 0 0 0
201.184300871193 0 7.69169008843601 0 -1.8376088173475 0 0 17.4488537311554 0 -2.87164946798696 -7.60904750725294 1.07694321430057 -4.22759001212003 -1.50691540151087 -1.88895565467623 4.61066236779537 0.652510676725879 -0.249060501211485 2.31053390935284 17.2698029276546 -10.2921027764842 30.1395586750423 0 0 0 0 0 -3.32693299641911 9.21838879450032 7.55769265172832 30.0315153276565 0 0 0 0 0 4.74468107405557 -2.29264056728601 4.72499135680558 -11.6804499336114 0 0 9.20341251129387 6.23177640381861 -5.52662773590145 26.7749278791008 -0.121351877503709 6.4517832837797 -82.8167062147541 0 0 7.31672537971362 -3.20460510821365 1.60096422484975 0 0 0 0 0 0
201.819906663522 0 7.68554538302124 0 -2.24832947411015 0 0 17.4025097250938 0 -2.05121993316872 -7.79875365134839 1.71273361845972 -3.8007759020192 -1.26965436899807 -1.61502002741952 4.63437194000263 0.522003370323648 0.250537761373842 3.73630709342657 21.0974562811553 -13.1452764475456 33.6205577553502 0 0 0 0 0 -4.29657849276382 13.5540908272562 9.27408706345163 25.4036318630551 0 0 0 0 0 2.60412094826579 -3.27282519833794 3.40737068539839 -13.4439569659845 0 0 12.2737475889133 7.94932715351029 -4.9191022515915 31.4022183512479 0.0766455892657776 6.61465631803797 -80.6487153797328 0 0 10.4221902481782 -3.42322424266864 1.24698771986817 0 0 0 0 0 0
202.438957428932 0 7.72500865384936 0 -2.62473111911375 0 0 17.3423682928085 0 -1.75816703081192 -7.14829930140644 1.79958408977747 -2.68962412516049 -0.92025186682121 -1.11329821460178 5.02448380932811 0.38100265356791 0.901056510244274 5.03800517088747 24.3718247823705 -15.8608386781201 35.6311058998135 0 0 0 0 0 -4.42954058276728 17.8095719471868 11.8816536587344 19.0496912932999 0 0 0 0 0 -0.0825397387138807 -5.0909718518409 2.86969846752752 -13.1121728430883 0 0 14.3525852041844 9.61505068260784 -4.34044680353068 35.8807355602871 0.964821561480317 6.33249001923454 -74.1893303495709 0 0 14.405085364553 -4.12228385758514 1.19674993335689 0 0 0 0 0 0
203.013305337727 0 7.79029051437974 0 -2.95267722158791 0 0 17.2860493898392 0 -2.42865923478003 -6.22542299493816 1.44587145621792 -0.994153702079919 -0.488675530832853 -0.31618410445975 5.06738825834649 0.263767889989913 1.24752542889487 5.97336579162052 27.9299413672405 -19.0819302513962 36.6651350684509 0 0 0 0 0 -4.01236185419896 22.1109005650127 15.0727884697844 10.5792185337302 0 0 0 0 0 -3.18411628029725 -7.40988840282383 3.19524296279914 -9.90343364083363 0 0 14.877050495159 11.5316895464347 -3.70249461366937 40.0299578297157 2.51835071521482 5.809155767346 -64.1085107195765 0 0 18.6348715350059 -5.27257356192634 1.34751296420085 0 0 0 0 0 0
203.560572879761 0 7.8424588304013 0 -3.255791763406 0 0 17.2134904384613 0 -3.60473825262876 -5.74785831947419 1.17892488112547 0.260487724014252 -0.0355957796913358 0.182835235894995 4.46542133741973 0.198369477070894 1.21430271206886 6.70614298011492 29.829634148374 -21.4540786512523 37.684691066237 0 0 0 0 0 -3.62363489001567 25.1942121934894 17.378426728066 1.36822296092843 0 0 0 0 0 -6.19201443857006 -9.47939554243912 3.63037947728743 -5.68629299348111 0 0 14.7963634693489 13.6960534617796 -2.85964972009802 42.9347005571816 4.19370794355686 4.99569522155535 -52.5243562079786 0 0 21.2572546465009 -5.72107941573164 1.44898400337946 0 0 0 0 0 0
204.088889685273 0 7.86732616648078 0 -3.56583973071324 0 0 17.1115617394447 0 -4.96699121383655 -5.86894420432866 1.15571986542846 0.523600280911836 -0.166662932615983 0.301977440596865 3.87111263053808 0.583806033797396 1.07504825112084 7.67443501675474 31.0075597037853 -23.1796742784716 39.6740656242733 0 0 0 0 0 -5.67317266144646 28.3769577811911 17.3768375185516 -0.0762111440372965 0 0 0 0 0 -8.00704645566636 -10.6107175194497 3.65486259446785 -3.12632848760681 0 0 15.4639958683291 15.4909173773361 -1.90157731285978 44.8729837959383 5.41020161988712 4.09561173923068 -42.4668377683377 0 0 21.8238080116853 -5.27622943859297 1.34884343629232 0 0 0 0 0 0
204.663989926875 0 7.86848209798336 0 -3.90909379557934 0 0 16.9994514942169 0 -5.94755600117687 -6.48702129256613 1.42361245741179 0.350768217086002 -0.314521605880279 0.205027027474825 2.92668375234589 0.892696464560982 0.832721823407137 8.76915646958498 30.8490838576516 -23.8120728927512 42.9971678064433 0 0 0 0 0 -7.64920450596827 29.3034194894601 15.9235355748408 -5.75431489679969E-06 0 0 0 0 0 -8.67761650475005 -9.6560849222853 2.94070372153822 -3.40607169166938 0 0 17.1777116777925 15.4757884824418 -1.30709316135485 45.119939956236 6.25719925418807 3.05852915310055 -35.560017290932 0 0 19.5997069681824 -4.16315392499051 1.33253893222481 0 0 0 0 0 0
205.251387368143 0 7.87176704779267 0 -4.26782429927105 0 0 16.8870619177818 0 -7.03740233225265 -6.76500903301684 1.75257984809116 -0.190130298794291 -0.471160719211241 -0.215789127723766 2.30561319640028 0.951473645002888 0.716259182971815 9.58874402754192 29.6005742881416 -23.8526169062811 47.1576648412353 0 0 0 0 0 -8.5013627240497 29.4855251058638 14.4983309376969 -4.3536834570154E-05 0 0 0 0 0 -8.60654867312676 -9.2448541714952 2.08631417807369 -5.08766362499628 0 0 19.0316121288994 15.5828617444607 -0.841868588424009 44.8750494058707 7.25463488736887 1.70333144896753 -31.4383191457203 0 0 15.410947686788 -2.95026148954297 1.24817793545205 0 0 0 0 0 0
205.863596767187 0 7.8911304473877 0 -4.62714773328293 0 0 16.7833072900772 0 -8.13781609217076 -6.75903814353059 1.90143927585237 -1.11832828477297 -0.568126890332363 -0.735188434317115 1.29106104083043 0.987783348117514 0.443514853260263 10.1942059401319 28.0652095903639 -23.5126335575627 50.5466407828555 0 0 0 0 0 -9.19434121698514 28.0724508138831 12.4912082311596 -0.000207611458562991 0 0 0 0 0 -8.35817106824609 -8.69682320131851 1.46520934918222 -7.31964223348316 0 0 20.0950967884346 15.2998446936051 -0.823855360537691 43.7484051217622 8.28373949221766 0.202435044643669 -27.7569308529007 0 0 10.7965355557195 -1.936430241778 1.01253872520619 0 0 0 0 0 0
206.51256210804 0 7.93581801205874 0 -4.983941349146 0 0 16.6797941327095 0 -9.16966373946906 -6.69323837230323 1.79085363931887 -2.38237955216417 -0.618846748645206 -1.32925579846344 -0.0243726755290957 0.983045408385056 0.0165393740353724 10.6418202634002 26.6690237522109 -23.2618880428116 52.8242185880151 0 0 0 0 0 -9.5167941246549 25.9609295582234 10.472486051626 -0.000838397278765385 0 0 0 0 0 -7.7497901832586 -8.08357218532729 1.10872660145277 -10.7082092175269 0 0 20.4353644594351 14.9031792146541 -1.25565809433088 41.8559962985788 9.12318799872665 -1.12743278528725 -24.3812259688378 0 0 6.11096064619497 -1.1583549895918 0.71180221439478 0 0 0 0 0 0
207.229754391313 0 8.01242189407349 0 -5.33533201638536 0 0 16.560049033165 0 -9.81951564423461 -6.57947607730148 1.41200035809992 -3.99969565795267 -0.649076531267066 -1.98766866677338 -1.62316474888128 0.936165619534269 -0.584674253766755 10.8769157914167 25.1184772129914 -22.7170805507327 54.088227056196 0 0 0 0 0 -9.37727228239124 22.9496722622636 8.53509916938596 -0.00416249503854696 0 0 0 0 0 -7.02369005810482 -7.50523835421089 0.994762894364927 -15.5564149479589 0 0 19.8406555527749 14.4257723025695 -2.19837770862191 39.1829568384105 9.54002985329065 -2.18465534271429 -21.6635107735627 0 0 1.20795268834904 -1.00438158343789 2.43263272745919 0 0 0 0 0 0
